<svg xmlns="http://www.w3.org/2000/svg" viewBox="0 0 512 512">
	<circle cx="444.77" cy="357.349" r="67.23" fill="#272f37"/>
	<path d="M451.356 417.994c-37.132 0-67.233-30.101-67.233-67.233 0-16.889 6.242-32.31 16.524-44.118-14.154 12.326-23.114 30.465-23.114 50.708 0 37.131 30.101 67.233 67.232 67.233 20.244 0 38.382-8.959 50.709-23.114-11.808 10.283-27.23 16.524-44.118 16.524z" opacity=".2"/>
	<circle cx="444.77" cy="357.349" r="38.31" fill="#b7b9bc"/>
	<path d="M460.44 322.394c-5.174 3.534-8.574 9.475-8.574 16.214 0 10.838 8.786 19.623 19.623 19.623 4.288 0 8.244-1.392 11.472-3.726-1.055-14.344-10.001-26.488-22.521-32.111z" opacity=".25" fill="#fff"/>
	<path d="M444.767 290.118c-37.131 0-67.232 30.101-67.232 67.233 0 5.079.581 10.02 1.65 14.777h20.485c5.415 0 10.43-2.846 13.207-7.493 7.871-13.172 22.086-21.236 37.429-21.236h5.507c6.278 0 11.985-3.64 14.634-9.331l13.866-29.797c.156-.335.267-.678.363-1.023-11.165-8.248-24.965-13.13-39.909-13.13z" opacity=".2"/>
	<path d="M491.621 289.492c1.44-3.094.272-6.771-2.679-8.484-12.99-7.532-28.079-11.845-44.175-11.845-46.329 0-84.315 35.727-87.909 81.133-.302 3.808 2.747 7.054 6.567 7.054h43.554c5.413 0 10.43-2.846 13.207-7.493 7.871-13.172 22.085-21.237 37.429-21.237h5.507c6.278 0 11.985-3.64 14.634-9.331l13.865-29.797z" fill="#00a155"/>
	<path d="M488.942 281.009c-12.99-7.532-28.079-11.845-44.175-11.845-3.71 0-7.359.253-10.949.699 2.884 23.762 22.305 42.411 46.417 44.1l11.386-24.468c1.44-3.097.273-6.774-2.679-8.486z" opacity=".15" fill="#fff"/>
	<circle cx="94.495" cy="357.349" r="67.23" fill="#272f37"/>
	<path d="M101.079 417.994c-37.132 0-67.233-30.101-67.233-67.232 0-16.889 6.242-32.31 16.525-44.119-14.154 12.326-23.114 30.465-23.114 50.708 0 37.131 30.101 67.233 67.233 67.233 20.244 0 38.382-8.959 50.708-23.114-11.809 10.283-27.23 16.524-44.119 16.524z" opacity=".2"/>
	<circle cx="94.495" cy="357.349" r="38.31" fill="#b7b9bc"/>
	<path d="M101.212 374.287l-43.867 3.629c-8.454.7-15.701-5.973-15.701-14.456v-10.739c0-8.482 7.247-15.155 15.701-14.456l43.867 3.629c6.072.502 10.744 5.577 10.744 11.669v9.055c0 6.093-4.672 11.168-10.744 11.669z" fill="#6a7379"/>
	<path d="M94.49 290.118c-37.131 0-67.233 30.101-67.233 67.233 0 4.417.439 8.729 1.251 12.907h131.963c.813-4.179 1.251-8.491 1.251-12.907.001-37.132-30.101-67.233-67.232-67.233z" opacity=".2"/>
	<path d="M380.724 87.416h-39.485c-17.009 0-30.797 13.788-30.797 30.797s13.788 30.797 30.797 30.797h39.485c2.219 0 4.017-1.799 4.017-4.017v-53.56c0-2.218-1.798-4.017-4.017-4.017z" fill="#00a155"/>
	<path fill="#006539" d="M348.608 87.421h16.451v61.593h-16.451z"/>
	<path d="M380.724 87.416h-39.485c-.922 0-1.834.048-2.736.127 7.735 17.875 25.522 30.384 46.238 30.384V91.434c0-2.219-1.798-4.018-4.017-4.018z" opacity=".2" fill="#fff"/>
	<path d="M343.234 149.012h-12.868c-4.58 0-7.717 4.617-6.03 8.875l31.822 80.315c6.579 16.605 4.238 35.418-6.21 49.905-15.634 21.678-40.733 34.522-67.46 34.522h-21.494c-13.714 0-26.634-6.429-34.906-17.368l-55.508-73.413H30.958L17.18 313.265c-3.902 23.057 13.867 44.087 37.252 44.087h246.056c67.858 0 113.228-69.873 85.619-131.861l-30.477-68.429c-2.181-4.897-7.037-8.05-12.396-8.05z" fill="#006539"/>
	<path d="M386.107 225.49l-18.344-41.187c-3.534 6.198-5.563 13.364-5.563 21.009 0 19.272 12.835 35.538 30.42 40.74-1.339-6.882-3.488-13.769-6.513-20.562z" opacity=".15" fill="#fff"/>
	<path opacity=".2" d="M170.583 231.848H30.958l-1.868 11.048h149.847z"/>
	<path d="M329.389 135.202H274.53c-7.627 0-13.809 6.182-13.809 13.809 0 7.627 6.182 13.809 13.809 13.809h54.859c7.627 0 13.809-6.182 13.809-13.809 0-7.625-6.182-13.809-13.809-13.809z" fill="#272f37"/>
	<path d="M335.898 156.51h-54.859c-7.627 0-13.809-6.182-13.809-13.809 0-2.232.542-4.333 1.483-6.2-4.716 2.197-7.992 6.965-7.992 12.512 0 7.627 6.182 13.809 13.809 13.809h54.859c5.395 0 10.054-3.1 12.327-7.61-1.77.825-3.736 1.298-5.818 1.298z" opacity=".2"/>
	<path d="M180.694 202.139h-41.168c-8.688 0-17.302-1.61-25.404-4.749-9.729-3.769-20.072-5.703-30.506-5.703H23.637c-7.369 0-13.343 5.974-13.343 13.343v13.473c0 7.369 5.974 13.343 13.343 13.343h157.057c5.991 0 10.849-4.857 10.849-10.849v-8.012c-.002-5.989-4.859-10.846-10.849-10.846z" fill="#c39774"/>
	<path d="M114.122 197.39c-9.729-3.769-20.072-5.703-30.506-5.703H23.637c-7.369 0-13.343 5.974-13.343 13.343v13.473c0 7.369 5.974 13.343 13.343 13.343h88.29l27.598-29.708c-8.688.001-17.302-1.61-25.403-4.748z" opacity=".1"/>
	<path d="M76.311 272.904h35.33c27.834 0 53.16 16.088 64.99 41.282l13.556 28.87c3.124 6.652-1.731 14.294-9.079 14.294H17.701c-11.02 0-19.361-9.965-17.419-20.813 6.588-36.823 38.62-63.633 76.029-63.633z" fill="#00a155"/>
	<path d="M118.785 315.401h-48.59c-4.543 0-8.226-3.683-8.226-8.226s3.683-8.226 8.226-8.226h48.589c4.543 0 8.226 3.683 8.226 8.226.001 4.543-3.682 8.226-8.225 8.226zM118.785 336.771h-48.59c-4.543 0-8.226-3.683-8.226-8.226s3.683-8.226 8.226-8.226h48.589c4.543 0 8.226 3.683 8.226 8.226.001 4.543-3.682 8.226-8.225 8.226z" opacity=".15"/>
	<path d="M176.631 314.186c-11.707-24.932-36.631-40.936-64.122-41.267-.381 2.427-.582 4.912-.582 7.447 0 26.327 21.342 47.669 47.669 47.669 7.619 0 14.815-1.796 21.202-4.975l-4.167-8.874z" opacity=".15" fill="#fff"/>
</svg>